<svg width="208" height="208" viewBox="0 0 208 208" fill="none" xmlns="http://www.w3.org/2000/svg">
<mask id="mask0_13_9" style="mask-type:alpha" maskUnits="userSpaceOnUse" x="104" y="0" width="104" height="104">
<path d="M208 104C208 90.3425 205.31 76.8188 200.083 64.2009C194.857 51.5831 187.196 40.1182 177.539 30.4609C167.882 20.8036 156.417 13.143 143.799 7.91653C131.181 2.69004 117.657 -5.96987e-07 104 0V11.9869C116.083 11.9869 128.048 14.3669 139.212 18.991C150.375 23.615 160.519 30.3927 169.063 38.9369C177.607 47.4811 184.385 57.6246 189.009 68.7881C193.633 79.9516 196.013 91.9167 196.013 104H208Z" fill="#9254F6"/>
</mask>
<g mask="url(#mask0_13_9)">
<circle cx="104" cy="104" r="98" fill="#9254F6" stroke="#7DD420" stroke-width="12" stroke-dasharray="2 5"/>
</g>
</svg>
