<svg width="26" height="18" viewBox="0 0 26 18" fill="none" xmlns="http://www.w3.org/2000/svg">
<path d="M0.0323931 10.1189L6.21479 0.120776C6.25902 0.0480354 6.33786 0.00254483 6.42431 0H12.7645H12.7643C12.8568 0.000588223 12.9416 0.0499974 12.9862 0.129405C13.0309 0.208616 13.0283 0.305279 12.9796 0.382141L8.21444 7.97146L13.7452 7.97166C13.8531 7.97185 13.9493 8.03852 13.9853 8.13812C14.0214 8.23792 13.9895 8.3489 13.9059 8.41575L1.85667 17.9421V17.9419C1.76161 18.0197 1.62313 18.0193 1.52848 17.9411C1.43382 17.8628 1.41001 17.7293 1.47224 17.6244L5.54603 10.4904H0.249904C0.160451 10.4884 0.0786018 10.441 0.0339807 10.3651C-0.0104452 10.2892 -0.0114457 10.1959 0.0317795 10.1192L0.0323931 10.1189Z" fill="#FF8600"/>
<path d="M16.98 14V3.92H18.443V8.267H23.483V3.92H24.953V14H23.483V9.646H18.443V14H16.98Z" fill="#FF8600"/>
</svg>
