<svg width="22" height="18" viewBox="0 0 22 18" fill="none" xmlns="http://www.w3.org/2000/svg">
<path d="M9.91437 5.39516C9.80622 5.21778 9.61121 5.11051 9.40191 5.11352H6.56016V0.583632C6.56016 0.261282 6.29615 0 5.97064 0H0.58934H0.589518C0.264018 0 0 0.261277 0 0.583632V9.53185C0 9.8542 0.264009 10.1155 0.589518 10.1155H2.5806V17.4137C2.57971 17.683 2.76507 17.9179 3.02908 17.9821C3.0752 17.9936 3.12239 17.9996 3.16993 18C3.3855 17.9966 3.58212 17.877 3.68239 17.6877L9.93266 5.96842C10.0285 5.78733 10.0217 5.56977 9.91461 5.39489L9.91437 5.39516Z" fill="#FF8600"/>
<path d="M12.28 14L15.556 3.92H17.663L20.939 14H19.42L16.403 4.802H16.781L13.799 14H12.28ZM13.981 11.725V10.353H19.245V11.725H13.981Z" fill="#FF8600"/>
</svg>
