<svg width="34" height="23" viewBox="0 0 34 23" fill="none" xmlns="http://www.w3.org/2000/svg">
<path d="M1.49349 12.1961C0.103595 11.4879 -0.464463 9.77225 0.432417 8.49595C1.99695 6.26956 4.00567 4.37762 6.34271 2.94548C9.48578 1.01941 13.1003 1.61678e-05 16.7866 1.63217e-05C20.4728 1.64755e-05 24.0873 1.01941 27.2304 2.94549C29.5674 4.37762 31.5762 6.26956 33.1407 8.49596C34.0376 9.77225 33.4695 11.4879 32.0796 12.1961V12.1961C30.6897 12.9043 29.0084 12.3283 28.0419 11.1038C26.9989 9.7825 25.7267 8.64925 24.2788 7.762C22.024 6.38025 19.4311 5.64895 16.7866 5.64895C14.1421 5.64895 11.5491 6.38025 9.29427 7.762C7.84641 8.64925 6.57421 9.7825 5.53119 11.1038C4.56469 12.3282 2.88338 12.9043 1.49349 12.1961V12.1961Z" fill="url(#paint0_linear_9_18)"/>
<path d="M7.15719 18.2219C6.04801 17.6567 5.59272 16.2839 6.33995 15.2882C7.32464 13.9762 8.55188 12.8558 9.96205 11.9917C12.0159 10.7331 14.3778 10.067 16.7866 10.067C19.1954 10.067 21.5572 10.7331 23.6111 11.9917C25.0213 12.8558 26.2485 13.9762 27.2332 15.2882C27.9804 16.2839 27.5251 17.6567 26.4159 18.2219V18.2219C25.3068 18.787 23.9676 18.3177 23.133 17.394C22.5875 16.7903 21.956 16.2646 21.2556 15.8354C19.9107 15.0112 18.364 14.575 16.7866 14.575C15.2091 14.575 13.6625 15.0112 12.3175 15.8354C11.6171 16.2646 10.9857 16.7903 10.4401 17.394C9.60558 18.3177 8.26637 18.787 7.15719 18.2219V18.2219Z" fill="url(#paint1_linear_9_18)"/>
<g filter="url(#filter0_b_9_18)">
<path d="M4.49535 15.3487C3.30601 14.7427 2.81937 13.2737 3.59531 12.1875C4.8535 10.4264 6.45662 8.9281 8.31599 7.78868C10.8652 6.22652 13.7968 5.39973 16.7866 5.39973C19.7764 5.39973 22.7079 6.22652 25.2571 7.78868C27.1165 8.9281 28.7196 10.4264 29.9778 12.1875C30.7538 13.2737 30.2671 14.7427 29.0778 15.3487V15.3487C27.8884 15.9547 26.4505 15.4595 25.6074 14.4247C24.8009 13.4349 23.8299 12.5833 22.7315 11.9102C20.9423 10.8138 18.8849 10.2336 16.7866 10.2336C14.6882 10.2336 12.6308 10.8138 10.8417 11.9102C9.74322 12.5833 8.77221 13.4349 7.96574 14.4247C7.12261 15.4595 5.68468 15.9547 4.49535 15.3487V15.3487Z" fill="#FBFFFE" fill-opacity="0.3"/>
</g>
<path d="M19.1818 20.4421C19.1818 21.7649 18.1094 22.8373 16.7866 22.8373C15.4637 22.8373 14.3914 21.7649 14.3914 20.4421C14.3914 19.1192 15.4637 18.0468 16.7866 18.0468C18.1094 18.0468 19.1818 19.1192 19.1818 20.4421Z" fill="#7754F6"/>
<g filter="url(#filter1_b_9_18)">
<path d="M10.2284 20.5241C9.2154 20.0079 8.79748 18.7485 9.52102 17.8715C10.1813 17.0712 10.9724 16.3817 11.8652 15.8346C13.3463 14.927 15.0495 14.4466 16.7866 14.4466C18.5236 14.4466 20.2269 14.927 21.708 15.8346C22.6007 16.3817 23.3918 17.0712 24.0521 17.8715C24.7757 18.7485 24.3577 20.0079 23.3447 20.5241V20.5241C22.3317 21.0403 21.1088 20.5916 20.2475 19.8494C20.032 19.6637 19.8011 19.495 19.5567 19.3452C18.723 18.8343 17.7643 18.5639 16.7866 18.5639C15.8088 18.5639 14.8501 18.8343 14.0164 19.3452C13.772 19.495 13.5411 19.6637 13.3257 19.8494C12.4644 20.5916 11.2415 21.0403 10.2284 20.5241V20.5241Z" fill="#FBFFFE" fill-opacity="0.3"/>
</g>
<defs>
<filter id="filter0_b_9_18" x="-4.78052" y="-2.60028" width="43.1342" height="26.2122" filterUnits="userSpaceOnUse" color-interpolation-filters="sRGB">
<feFlood flood-opacity="0" result="BackgroundImageFix"/>
<feGaussianBlur in="BackgroundImage" stdDeviation="4"/>
<feComposite in2="SourceAlpha" operator="in" result="effect1_backgroundBlur_9_18"/>
<feBlend mode="normal" in="SourceGraphic" in2="effect1_backgroundBlur_9_18" result="shape"/>
</filter>
<filter id="filter1_b_9_18" x="4.50927" y="9.79864" width="24.5546" height="15.5957" filterUnits="userSpaceOnUse" color-interpolation-filters="sRGB">
<feFlood flood-opacity="0" result="BackgroundImageFix"/>
<feGaussianBlur in="BackgroundImage" stdDeviation="2.32401"/>
<feComposite in2="SourceAlpha" operator="in" result="effect1_backgroundBlur_9_18"/>
<feBlend mode="normal" in="SourceGraphic" in2="effect1_backgroundBlur_9_18" result="shape"/>
</filter>
<linearGradient id="paint0_linear_9_18" x1="21.1786" y1="39.9766" x2="-11.3646" y2="-14.3998" gradientUnits="userSpaceOnUse">
<stop stop-color="#7754F6"/>
<stop offset="1" stop-color="#7754F6"/>
</linearGradient>
<linearGradient id="paint1_linear_9_18" x1="19.6565" y1="36.1896" x2="-1.60874" y2="0.657402" gradientUnits="userSpaceOnUse">
<stop stop-color="#7754F6"/>
<stop offset="1" stop-color="#7754F6"/>
</linearGradient>
</defs>
</svg>
