<svg width="130" height="29" viewBox="0 0 130 29" fill="none" xmlns="http://www.w3.org/2000/svg">
<path d="M56.9858 10.5653C56.9176 9.87784 56.625 9.34375 56.108 8.96307C55.5909 8.58239 54.8892 8.39204 54.0028 8.39204C53.4006 8.39204 52.892 8.47727 52.4773 8.64773C52.0625 8.8125 51.7443 9.04261 51.5227 9.33807C51.3068 9.63352 51.1989 9.96875 51.1989 10.3438C51.1875 10.6562 51.2528 10.929 51.3949 11.1619C51.5426 11.3949 51.7443 11.5966 52 11.767C52.2557 11.9318 52.5511 12.0767 52.8864 12.2017C53.2216 12.321 53.5795 12.4233 53.9602 12.5085L55.5284 12.8835C56.2898 13.054 56.9886 13.2812 57.625 13.5653C58.2614 13.8494 58.8125 14.1989 59.2784 14.6136C59.7443 15.0284 60.1051 15.517 60.3608 16.0795C60.6222 16.642 60.7557 17.2869 60.7614 18.0142C60.7557 19.0824 60.483 20.0085 59.9432 20.7926C59.4091 21.571 58.6364 22.1761 57.625 22.608C56.6193 23.0341 55.4063 23.2472 53.9858 23.2472C52.5767 23.2472 51.3494 23.0312 50.304 22.5994C49.2642 22.1676 48.4517 21.5284 47.8665 20.6818C47.2869 19.8295 46.983 18.7756 46.9545 17.5199H50.5256C50.5653 18.1051 50.733 18.5937 51.0284 18.9858C51.3295 19.3722 51.7301 19.6648 52.2301 19.8636C52.7358 20.0568 53.3068 20.1534 53.9432 20.1534C54.5682 20.1534 55.1108 20.0625 55.571 19.8807C56.0369 19.6989 56.3977 19.446 56.6534 19.1222C56.9091 18.7983 57.0369 18.4261 57.0369 18.0057C57.0369 17.6136 56.9205 17.2841 56.6875 17.017C56.4602 16.75 56.125 16.5227 55.6818 16.3352C55.2443 16.1477 54.7074 15.9773 54.071 15.8239L52.1705 15.3466C50.6989 14.9886 49.5369 14.429 48.6847 13.6676C47.8324 12.9062 47.4091 11.8807 47.4148 10.5909C47.4091 9.53409 47.6903 8.6108 48.2585 7.82102C48.8324 7.03125 49.6193 6.41477 50.6193 5.97159C51.6193 5.52841 52.7557 5.30682 54.0284 5.30682C55.3239 5.30682 56.4545 5.52841 57.4205 5.97159C58.392 6.41477 59.1477 7.03125 59.6875 7.82102C60.2273 8.6108 60.5057 9.52557 60.5227 10.5653H56.9858ZM65.8537 23H61.8991L67.9247 5.54545H72.6804L78.6974 23H74.7429L70.3707 9.53409H70.2344L65.8537 23ZM65.6065 16.1392H74.9474V19.0199H65.6065V16.1392ZM96.0178 14.2727C96.0178 16.1761 95.657 17.7955 94.9354 19.1307C94.2195 20.4659 93.2422 21.4858 92.0036 22.1903C90.7706 22.8892 89.3842 23.2386 87.8445 23.2386C86.2933 23.2386 84.9013 22.8864 83.6683 22.1818C82.4354 21.4773 81.4609 20.4574 80.745 19.1222C80.0291 17.7869 79.6712 16.1705 79.6712 14.2727C79.6712 12.3693 80.0291 10.75 80.745 9.41477C81.4609 8.07955 82.4354 7.0625 83.6683 6.36364C84.9013 5.65909 86.2933 5.30682 87.8445 5.30682C89.3842 5.30682 90.7706 5.65909 92.0036 6.36364C93.2422 7.0625 94.2195 8.07955 94.9354 9.41477C95.657 10.75 96.0178 12.3693 96.0178 14.2727ZM92.2763 14.2727C92.2763 13.0398 92.0916 12 91.7223 11.1534C91.3587 10.3068 90.8445 9.66477 90.1797 9.22727C89.5149 8.78977 88.7365 8.57102 87.8445 8.57102C86.9524 8.57102 86.174 8.78977 85.5092 9.22727C84.8445 9.66477 84.3274 10.3068 83.9581 11.1534C83.5945 12 83.4126 13.0398 83.4126 14.2727C83.4126 15.5057 83.5945 16.5455 83.9581 17.392C84.3274 18.2386 84.8445 18.8807 85.5092 19.3182C86.174 19.7557 86.9524 19.9744 87.8445 19.9744C88.7365 19.9744 89.5149 19.7557 90.1797 19.3182C90.8445 18.8807 91.3587 18.2386 91.7223 17.392C92.0916 16.5455 92.2763 15.5057 92.2763 14.2727ZM100.776 23H96.821L102.847 5.54545H107.602L113.619 23H109.665L105.293 9.53409H105.156L100.776 23ZM100.528 16.1392H109.869V19.0199H100.528V16.1392ZM124.79 10.5653C124.722 9.87784 124.43 9.34375 123.913 8.96307C123.396 8.58239 122.694 8.39204 121.808 8.39204C121.205 8.39204 120.697 8.47727 120.282 8.64773C119.867 8.8125 119.549 9.04261 119.327 9.33807C119.112 9.63352 119.004 9.96875 119.004 10.3438C118.992 10.6562 119.058 10.929 119.2 11.1619C119.347 11.3949 119.549 11.5966 119.805 11.767C120.06 11.9318 120.356 12.0767 120.691 12.2017C121.026 12.321 121.384 12.4233 121.765 12.5085L123.333 12.8835C124.094 13.054 124.793 13.2812 125.43 13.5653C126.066 13.8494 126.617 14.1989 127.083 14.6136C127.549 15.0284 127.91 15.517 128.165 16.0795C128.427 16.642 128.56 17.2869 128.566 18.0142C128.56 19.0824 128.288 20.0085 127.748 20.7926C127.214 21.571 126.441 22.1761 125.43 22.608C124.424 23.0341 123.211 23.2472 121.79 23.2472C120.381 23.2472 119.154 23.0312 118.109 22.5994C117.069 22.1676 116.256 21.5284 115.671 20.6818C115.092 19.8295 114.788 18.7756 114.759 17.5199H118.33C118.37 18.1051 118.538 18.5937 118.833 18.9858C119.134 19.3722 119.535 19.6648 120.035 19.8636C120.54 20.0568 121.112 20.1534 121.748 20.1534C122.373 20.1534 122.915 20.0625 123.376 19.8807C123.842 19.6989 124.202 19.446 124.458 19.1222C124.714 18.7983 124.842 18.4261 124.842 18.0057C124.842 17.6136 124.725 17.2841 124.492 17.017C124.265 16.75 123.93 16.5227 123.487 16.3352C123.049 16.1477 122.512 15.9773 121.876 15.8239L119.975 15.3466C118.504 14.9886 117.342 14.429 116.489 13.6676C115.637 12.9062 115.214 11.8807 115.219 10.5909C115.214 9.53409 115.495 8.6108 116.063 7.82102C116.637 7.03125 117.424 6.41477 118.424 5.97159C119.424 5.52841 120.56 5.30682 121.833 5.30682C123.129 5.30682 124.259 5.52841 125.225 5.97159C126.197 6.41477 126.952 7.03125 127.492 7.82102C128.032 8.6108 128.31 9.52557 128.327 10.5653H124.79Z" fill="#2F2F2F"/>
<path d="M1.49348 15.1961C0.103596 14.4879 -0.464462 12.7722 0.432419 11.496C1.99695 9.26956 4.00567 7.37762 6.34271 5.94548C9.48578 4.01941 13.1003 3.00002 16.7866 3.00002C20.4728 3.00002 24.0873 4.01941 27.2304 5.94549C29.5674 7.37762 31.5762 9.26956 33.1407 11.496C34.0376 12.7722 33.4695 14.4879 32.0796 15.1961C30.6897 15.9043 29.0084 15.3283 28.0419 14.1038C26.9989 12.7825 25.7267 11.6492 24.2788 10.762C22.024 9.38025 19.4311 8.64895 16.7866 8.64895C14.1421 8.64895 11.5491 9.38025 9.29427 10.762C7.84641 11.6492 6.57421 12.7825 5.53119 14.1038C4.56469 15.3282 2.88338 15.9043 1.49348 15.1961Z" fill="url(#paint0_linear_10_2)"/>
<path d="M7.15719 21.2219C6.04801 20.6567 5.59272 19.2839 6.33995 18.2882C7.32464 16.9762 8.55188 15.8558 9.96205 14.9917C12.0159 13.7331 14.3778 13.067 16.7866 13.067C19.1954 13.067 21.5572 13.7331 23.6111 14.9917C25.0213 15.8558 26.2485 16.9762 27.2332 18.2882C27.9804 19.2839 27.5251 20.6567 26.4159 21.2219C25.3068 21.787 23.9676 21.3177 23.133 20.394C22.5875 19.7903 21.956 19.2646 21.2556 18.8354C19.9107 18.0112 18.364 17.575 16.7866 17.575C15.2091 17.575 13.6625 18.0112 12.3175 18.8354C11.6171 19.2646 10.9857 19.7903 10.4401 20.394C9.60558 21.3177 8.26637 21.787 7.15719 21.2219Z" fill="url(#paint1_linear_10_2)"/>
<g filter="url(#filter0_b_10_2)">
<path d="M4.49535 18.3487C3.30601 17.7427 2.81937 16.2737 3.59531 15.1875C4.8535 13.4264 6.45662 11.9281 8.31599 10.7887C10.8652 9.22652 13.7968 8.39973 16.7866 8.39973C19.7764 8.39973 22.7079 9.22652 25.2571 10.7887C27.1165 11.9281 28.7196 13.4264 29.9778 15.1875C30.7538 16.2737 30.2671 17.7427 29.0778 18.3487C27.8884 18.9547 26.4505 18.4595 25.6074 17.4247C24.8009 16.4349 23.8299 15.5833 22.7315 14.9102C20.9423 13.8138 18.8849 13.2336 16.7866 13.2336C14.6882 13.2336 12.6308 13.8138 10.8417 14.9102C9.74322 15.5833 8.77221 16.4349 7.96574 17.4247C7.12261 18.4595 5.68468 18.9547 4.49535 18.3487Z" fill="#FBFFFE" fill-opacity="0.3"/>
</g>
<path d="M19.1818 23.4421C19.1818 24.7649 18.1094 25.8373 16.7866 25.8373C15.4637 25.8373 14.3914 24.7649 14.3914 23.4421C14.3914 22.1192 15.4637 21.0468 16.7866 21.0468C18.1094 21.0468 19.1818 22.1192 19.1818 23.4421Z" fill="#7754F6"/>
<g filter="url(#filter1_b_10_2)">
<path d="M10.2284 23.5241C9.2154 23.0079 8.79748 21.7485 9.52102 20.8715C10.1813 20.0712 10.9724 19.3817 11.8652 18.8346C13.3463 17.927 15.0495 17.4466 16.7866 17.4466C18.5236 17.4466 20.2269 17.927 21.708 18.8346C22.6007 19.3817 23.3918 20.0712 24.0521 20.8715C24.7757 21.7485 24.3577 23.0079 23.3447 23.5241C22.3317 24.0403 21.1088 23.5916 20.2475 22.8494C20.032 22.6637 19.8011 22.495 19.5567 22.3452C18.723 21.8343 17.7643 21.5639 16.7866 21.5639C15.8088 21.5639 14.8501 21.8343 14.0164 22.3452C13.772 22.495 13.5411 22.6637 13.3257 22.8494C12.4644 23.5916 11.2415 24.0403 10.2284 23.5241Z" fill="#FBFFFE" fill-opacity="0.3"/>
</g>
<defs>
<filter id="filter0_b_10_2" x="-4.78052" y="0.399719" width="43.1342" height="26.2122" filterUnits="userSpaceOnUse" color-interpolation-filters="sRGB">
<feFlood flood-opacity="0" result="BackgroundImageFix"/>
<feGaussianBlur in="BackgroundImage" stdDeviation="4"/>
<feComposite in2="SourceAlpha" operator="in" result="effect1_backgroundBlur_10_2"/>
<feBlend mode="normal" in="SourceGraphic" in2="effect1_backgroundBlur_10_2" result="shape"/>
</filter>
<filter id="filter1_b_10_2" x="4.50927" y="12.7986" width="24.5546" height="15.5957" filterUnits="userSpaceOnUse" color-interpolation-filters="sRGB">
<feFlood flood-opacity="0" result="BackgroundImageFix"/>
<feGaussianBlur in="BackgroundImage" stdDeviation="2.32401"/>
<feComposite in2="SourceAlpha" operator="in" result="effect1_backgroundBlur_10_2"/>
<feBlend mode="normal" in="SourceGraphic" in2="effect1_backgroundBlur_10_2" result="shape"/>
</filter>
<linearGradient id="paint0_linear_10_2" x1="21.1786" y1="42.9766" x2="-11.3646" y2="-11.3998" gradientUnits="userSpaceOnUse">
<stop stop-color="#7754F6"/>
<stop offset="1" stop-color="#7754F6"/>
</linearGradient>
<linearGradient id="paint1_linear_10_2" x1="19.6565" y1="39.1896" x2="-1.60874" y2="3.6574" gradientUnits="userSpaceOnUse">
<stop stop-color="#7754F6"/>
<stop offset="1" stop-color="#7754F6"/>
</linearGradient>
</defs>
</svg>
